<?xml version="1.0" encoding="UTF-8"?>
<!DOCTYPE svg PUBLIC "-//W3C//DTD SVG 1.1//EN" "http://www.w3.org/Graphics/SVG/1.1/DTD/svg11.dtd">
<svg xmlns="http://www.w3.org/2000/svg" version="1.1" width="203px" height="137px" style="shape-rendering:geometricPrecision; text-rendering:geometricPrecision; image-rendering:optimizeQuality; fill-rule:evenodd; clip-rule:evenodd" xmlns:xlink="http://www.w3.org/1999/xlink">
<g><path style="opacity:1" fill="#fefefe" d="M -0.5,-0.5 C 67.1667,-0.5 134.833,-0.5 202.5,-0.5C 202.5,45.1667 202.5,90.8333 202.5,136.5C 134.833,136.5 67.1667,136.5 -0.5,136.5C -0.5,90.8333 -0.5,45.1667 -0.5,-0.5 Z"/></g>
<g><path style="opacity:1" fill="#acd0e1" d="M 111.5,17.5 C 114.187,17.3359 116.854,17.5026 119.5,18C 128.538,22.1349 138.038,24.6349 148,25.5C 154.667,25.2771 160.833,23.4438 166.5,20C 167.833,19.3333 169.167,19.3333 170.5,20C 176.523,32.5461 182.69,45.0461 189,57.5C 189.667,59.5 189.667,61.5 189,63.5C 180.8,69.5975 172.8,75.9309 165,82.5C 156.262,74.7653 147.762,66.5987 139.5,58C 133.448,52.9474 127.115,48.2807 120.5,44C 119.167,43.3333 117.833,43.3333 116.5,44C 109.727,50.107 102.393,55.4403 94.5,60C 83.7487,64.2043 77.9154,60.7043 77,49.5C 89.4297,39.8627 100.93,29.1961 111.5,17.5 Z"/></g>
<g><path style="opacity:1" fill="#abd0e1" d="M 34.5,19.5 C 39.0128,19.588 43.0128,21.088 46.5,24C 49.9303,24.9565 53.4303,25.4565 57,25.5C 65.671,24.4326 74.171,22.5992 82.5,20C 87.8869,19.2155 93.2202,19.3822 98.5,20.5C 99.521,21.0016 99.6877,21.6683 99,22.5C 90,30.8333 81,39.1667 72,47.5C 71.1628,51.2946 71.4961,54.9613 73,58.5C 77.4165,65.3057 83.5832,67.8057 91.5,66C 100.908,61.9277 109.241,56.2611 116.5,49C 132.356,58.1712 145.856,70.3379 157,85.5C 158.582,96.7504 153.749,101.417 142.5,99.5C 142.175,105.825 138.842,109.158 132.5,109.5C 130.142,109.247 127.808,108.914 125.5,108.5C 126.144,113.385 124.144,116.552 119.5,118C 116.854,118.497 114.187,118.664 111.5,118.5C 109.211,126.311 104.211,128.811 96.5,126C 101,121.5 105.5,117 110,112.5C 111.592,101.261 106.759,95.928 95.5,96.5C 95.1156,93.2307 93.7823,90.3974 91.5,88C 87.7104,86.1895 83.7104,85.0229 79.5,84.5C 76.8634,77.6777 71.8634,74.6777 64.5,75.5C 62.469,66.7921 57.1357,63.4588 48.5,65.5C 43.8748,69.6238 39.3748,73.9571 35,78.5C 29.3937,72.5362 23.0604,67.5362 16,63.5C 15.3333,62.1667 15.3333,60.8333 16,59.5C 21.9237,45.9899 28.0903,32.6566 34.5,19.5 Z"/></g>
<g><path style="opacity:1" fill="#acd0e1" d="M 50.5,68.5 C 58.1474,68.3133 61.3141,71.98 60,79.5C 54.8333,84.6667 49.6667,89.8333 44.5,95C 36.8288,96.3259 33.3288,93.1592 34,85.5C 39.0314,79.303 44.5314,73.6364 50.5,68.5 Z"/></g>
<g><path style="opacity:1" fill="#acd0e1" d="M 65.5,79.5 C 73.1474,79.3133 76.3141,82.98 75,90.5C 69.8333,95.6667 64.6667,100.833 59.5,106C 51.8288,107.326 48.3288,104.159 49,96.5C 54.0314,90.303 59.5314,84.6364 65.5,79.5 Z"/></g>
<g><path style="opacity:1" fill="#acd0e1" d="M 80.5,89.5 C 88.1609,88.663 91.6609,91.9964 91,99.5C 86.1996,105.302 81.033,110.802 75.5,116C 67.8288,117.326 64.3288,114.159 65,106.5C 70.0042,100.664 75.1708,94.9969 80.5,89.5 Z"/></g>
<g><path style="opacity:1" fill="#add1e1" d="M 96.5,99.5 C 104.149,99.3144 107.315,102.981 106,110.5C 101.867,115.634 97.3671,120.468 92.5,125C 83.648,128.672 79.4813,125.839 80,116.5C 85.0314,110.303 90.5314,104.636 96.5,99.5 Z"/></g>
</svg>
