<?xml version="1.0" encoding="UTF-8"?>
<!DOCTYPE svg PUBLIC "-//W3C//DTD SVG 1.1//EN" "http://www.w3.org/Graphics/SVG/1.1/DTD/svg11.dtd">
<svg xmlns="http://www.w3.org/2000/svg" version="1.1" width="191px" height="122px" style="shape-rendering:geometricPrecision; text-rendering:geometricPrecision; image-rendering:optimizeQuality; fill-rule:evenodd; clip-rule:evenodd" xmlns:xlink="http://www.w3.org/1999/xlink">
<g><path style="opacity:1" fill="#fbfbfb" d="M -0.5,-0.5 C 63.1667,-0.5 126.833,-0.5 190.5,-0.5C 190.5,40.1667 190.5,80.8333 190.5,121.5C 126.833,121.5 63.1667,121.5 -0.5,121.5C -0.5,80.8333 -0.5,40.1667 -0.5,-0.5 Z"/></g>
<g><path style="opacity:1" fill="#131313" d="M 105.5,5.5 C 108.187,5.33591 110.854,5.50258 113.5,6C 122.696,10.2305 132.363,12.7305 142.5,13.5C 149.468,13.7875 155.802,11.9542 161.5,8C 162.833,7.33333 164.167,7.33333 165.5,8C 171.872,21.2438 178.372,34.4105 185,47.5C 185.667,48.8333 185.667,50.1667 185,51.5C 176.591,58.2873 168.091,64.954 159.5,71.5C 149.704,61.8729 139.704,52.3729 129.5,43C 124.198,38.3653 118.364,34.5319 112,31.5C 104.742,38.0894 96.9086,43.9227 88.5,49C 80.0719,52.7036 73.9052,50.537 70,42.5C 69.3333,41.1667 69.3333,39.8333 70,38.5C 82.5733,28.2966 94.4066,17.2966 105.5,5.5 Z"/></g>
<g><path style="opacity:1" fill="#131313" d="M 27.5,7.5 C 31.7814,8.13609 35.7814,9.63609 39.5,12C 51.7908,13.9369 63.7908,12.6036 75.5,8C 81.2195,7.21244 86.8862,7.37911 92.5,8.5C 93.521,9.00161 93.6877,9.66828 93,10.5C 83.6667,19.1667 74.3333,27.8333 65,36.5C 63.6382,44.2783 66.4715,50.1117 73.5,54C 78.1667,54.6667 82.8333,54.6667 87.5,54C 95.9946,49.8357 103.661,44.5024 110.5,38C 111.908,37.6848 113.241,38.0181 114.5,39C 125.926,47.7551 136.759,57.2551 147,67.5C 148.667,70.1667 150.333,72.8333 152,75.5C 152.755,85.9071 147.922,90.2404 137.5,88.5C 137.116,91.7693 135.782,94.6026 133.5,97C 129.27,98.2899 124.936,98.7899 120.5,98.5C 118.677,106.265 113.677,109.931 105.5,109.5C 102.493,116.678 97.4929,118.844 90.5,116C 95.1161,111.262 99.6161,106.429 104,101.5C 105.242,90.6514 100.409,84.9847 89.5,84.5C 86.4539,76.8074 80.7872,73.4741 72.5,74.5C 70.7707,66.458 65.7707,63.1247 57.5,64.5C 55.7318,55.7725 50.3985,52.2725 41.5,54C 36.9852,58.6819 32.3185,63.1819 27.5,67.5C 22.0288,61.357 15.6955,56.357 8.5,52.5C 7.38615,51.277 7.21948,49.9437 8,48.5C 14.2311,34.6053 20.7311,20.9386 27.5,7.5 Z"/></g>
<g><path style="opacity:1" fill="#131313" d="M 42.5,57.5 C 50.1609,56.663 53.6609,59.9964 53,67.5C 48.1996,73.3017 43.033,78.8017 37.5,84C 29.225,86.0571 25.725,82.8905 27,74.5C 32.0042,68.6635 37.1708,62.9969 42.5,57.5 Z"/></g>
<g><path style="opacity:1" fill="#161616" d="M 58.5,68.5 C 66.1474,68.3133 69.3141,71.98 68,79.5C 63.5334,84.9681 58.7,90.1347 53.5,95C 44.88,97.7169 41.0466,94.5502 42,85.5C 47.0314,79.303 52.5314,73.6364 58.5,68.5 Z"/></g>
<g><path style="opacity:1" fill="#151515" d="M 74.5,78.5 C 82.9856,78.1607 86.1523,82.1607 84,90.5C 79.1667,95.3333 74.3333,100.167 69.5,105C 65.3336,107.251 61.8336,106.417 59,102.5C 57.627,100.305 57.2937,97.9712 58,95.5C 63.7029,89.9647 69.2029,84.2981 74.5,78.5 Z"/></g>
<g><path style="opacity:1" fill="#141414" d="M 89.5,89.5 C 97.164,88.6662 100.664,91.9995 100,99.5C 95.1996,105.302 90.033,110.802 84.5,116C 75.6667,117.833 72.1667,114.333 74,105.5C 79.4247,100.245 84.5914,94.9114 89.5,89.5 Z"/></g>
</svg>
